<svg xmlns="http://www.w3.org/2000/svg" width="512" height="512" viewBox="0 0 512 512">
<rect width="100%" height="100%" fill="none"/>
<g>
<rect x="56" y="56" width="400" height="400" rx="80.0" fill="#2F80ED"/>
<path d="M 156.0 192.0 L 228.0 192.0 Q 248.0 192.0 260.0 212.0 L 276.0 236.0 L 356.0 236.0 Q 384.0 236.0 384.0 264.0 L 384.0 344.0 Q 384.0 372.0 356.0 372.0 L 156.0 372.0 Q 128.0 372.0 128.0 344.0 L 128.0 220.0 Q 128.0 192.0 156.0 192.0 Z" fill="#FFFFFF" opacity="0.96"/>
<rect x="164.0" y="160.0" width="176.0" height="180.0" rx="18.0" fill="#F7FAFC" stroke="#102033" stroke-opacity="0.12" stroke-width="4.8"/>
<rect x="188.0" y="192.0" width="128.0" height="14.000000000000002" rx="6.800000000000001" fill="#DCE5F2"/>
<rect x="188.0" y="228.0" width="100.0" height="14.000000000000002" rx="6.800000000000001" fill="#DCE5F2"/>
<rect x="188.0" y="264.0" width="115.99999999999999" height="14.000000000000002" rx="6.800000000000001" fill="#DCE5F2"/>
<circle cx="344.0" cy="336.0" r="57.99999999999999" fill="#19B394"/>
<path d="M 318.0 336.0 L 338.0 356.0 L 372.0 310.0" fill="none" stroke="#FFFFFF" stroke-width="18.0" stroke-linecap="round" stroke-linejoin="round"/>
</g>
</svg>