<svg xmlns="http://www.w3.org/2000/svg" width="900" height="240" viewBox="0 0 900 240">
<rect width="100%" height="100%" fill="none"/>
<g>
<rect x="40" y="38" width="160" height="160" rx="32.0" fill="#2F80ED"/>
<path d="M 80.0 92.4 L 108.8 92.4 Q 116.8 92.4 121.6 100.4 L 128.0 110.0 L 160.0 110.0 Q 171.2 110.0 171.2 121.2 L 171.2 153.2 Q 171.2 164.4 160.0 164.4 L 80.0 164.4 Q 68.8 164.4 68.8 153.2 L 68.8 103.6 Q 68.8 92.4 80.0 92.4 Z" fill="#FFFFFF" opacity="0.96"/>
<rect x="83.2" y="79.6" width="70.4" height="72.0" rx="7.199999999999999" fill="#F7FAFC" stroke="#102033" stroke-opacity="0.12" stroke-width="1.92"/>
<rect x="92.80000000000001" y="92.4" width="51.2" height="5.6000000000000005" rx="2.72" fill="#DCE5F2"/>
<rect x="92.80000000000001" y="106.8" width="40.0" height="5.6000000000000005" rx="2.72" fill="#DCE5F2"/>
<rect x="92.80000000000001" y="121.2" width="46.4" height="5.6000000000000005" rx="2.72" fill="#DCE5F2"/>
<circle cx="155.2" cy="150.0" r="23.2" fill="#19B394"/>
<path d="M 144.8 150.0 L 152.8 158.0 L 166.4 139.6" fill="none" stroke="#FFFFFF" stroke-width="7.199999999999999" stroke-linecap="round" stroke-linejoin="round"/>
</g><text x="230" y="105" font-family="Inter, Manrope, Arial, sans-serif" font-size="58" font-weight="800" fill="#FFFFFF" letter-spacing="-1.5">NoLostDocs</text>
<text x="233" y="151" font-family="Inter, Manrope, Arial, sans-serif" font-size="24" font-weight="500" fill="#D8E4F5">No more lost docs. Everything you need in one app.</text>
</svg>